<svg xmlns="http://www.w3.org/2000/svg" viewBox="0 0 192 192">
  <defs>
    <linearGradient id="mainGrad" x1="0%" y1="0%" x2="100%" y2="100%">
      <stop offset="0%" style="stop-color:#10B981"/>
      <stop offset="50%" style="stop-color:#0EA5E9"/>
      <stop offset="100%" style="stop-color:#6366F1"/>
    </linearGradient>
    <linearGradient id="shineGrad" x1="0%" y1="0%" x2="0%" y2="100%">
      <stop offset="0%" style="stop-color:#ffffff;stop-opacity:0.3"/>
      <stop offset="100%" style="stop-color:#ffffff;stop-opacity:0"/>
    </linearGradient>
  </defs>
  
  <rect x="12" y="12" width="168" height="168" rx="36" fill="url(#mainGrad)"/>
  <rect x="12" y="12" width="168" height="84" rx="36" fill="url(#shineGrad)"/>
  
  <!-- Barras -->
  <g fill="#ffffff" opacity="0.95">
    <rect x="45" y="120" width="18" height="30" rx="3"/>
    <rect x="69" y="98" width="18" height="52" rx="3"/>
    <rect x="93" y="75" width="18" height="75" rx="3"/>
    <rect x="117" y="52" width="18" height="98" rx="3"/>
  </g>
  
  <!-- Linha -->
  <path d="M54 112 L78 90 L102 67 L126 45" stroke="#ffffff" stroke-width="2.5" stroke-linecap="round" fill="none" opacity="0.9"/>
  <circle cx="126" cy="45" r="5" fill="#ffffff"/>
  
  <!-- Sparkle -->
  <path d="M150 30 L152.5 37 L160 39.5 L152.5 42 L150 49 L147.5 42 L140 39.5 L147.5 37 Z" fill="#ffffff"/>
</svg>
